<?xml version="1.0" standalone="no"?><!DOCTYPE svg PUBLIC "-//W3C//DTD SVG 1.1//EN" "http://www.w3.org/Graphics/SVG/1.1/DTD/svg11.dtd"><svg t="1586071270572" class="icon" viewBox="0 0 1024 1024" version="1.1" xmlns="http://www.w3.org/2000/svg" p-id="2152" xmlns:xlink="http://www.w3.org/1999/xlink" width="200" height="200"><defs><style type="text/css"></style></defs><path d="M512 665.6c-85.333333 0-153.6-68.266667-153.6-153.6s68.266667-153.6 153.6-153.6 153.6 68.266667 153.6 153.6-68.266667 153.6-153.6 153.6z m0-221.866667c-38.4 0-68.266667 29.866667-68.266667 68.266667s29.866667 68.266667 68.266667 68.266667 68.266667-29.866667 68.266667-68.266667-29.866667-68.266667-68.266667-68.266667z" p-id="2153"></path><path d="M514.133333 960c-64 0-117.333333-51.2-117.333333-117.333333v-4.266667c0-6.4-4.266667-12.8-12.8-14.933333h-2.133333c-6.4-2.133333-14.933333-2.133333-19.2 4.266666v2.133334c-21.333333 21.333333-51.2 34.133333-83.2 34.133333s-59.733333-12.8-83.2-34.133333c-21.333333-21.333333-34.133333-51.2-34.133334-83.2s12.8-59.733333 34.133334-83.2l4.266666-2.133334c4.266667-4.266667 6.4-12.8 4.266667-19.2-2.133333-6.4-8.533333-10.666667-17.066667-10.666666h-6.4c-64 0-117.333333-51.2-117.333333-117.333334s51.2-117.333333 117.333333-117.333333h4.266667c6.4 0 12.8-4.266667 14.933333-12.8v-2.133333c2.133333-6.4 2.133333-14.933333-4.266666-19.2h-2.133334C149.333333 317.866667 149.333333 243.2 194.133333 198.4c44.8-44.8 119.466667-44.8 164.266667 0l4.266667 2.133333c4.266667 4.266667 12.8 6.4 19.2 4.266667 2.133333 0 4.266667-2.133333 6.4-2.133333 4.266667-4.266667 6.4-8.533333 6.4-14.933334v-6.4C394.666667 115.2 448 64 512 64s117.333333 51.2 117.333333 117.333333v4.266667c0 6.4 4.266667 12.8 10.666667 17.066667 6.4 4.266667 14.933333 2.133333 21.333333-4.266667v-4.266667c21.333333-21.333333 51.2-34.133333 83.2-34.133333s59.733333 12.8 83.2 34.133333c21.333333 21.333333 34.133333 51.2 34.133334 83.2s-12.8 59.733333-34.133334 83.2l-4.266666 2.133334c-4.266667 4.266667-6.4 12.8-4.266667 19.2 0 2.133333 2.133333 4.266667 2.133333 6.4 4.266667 4.266667 8.533333 6.4 14.933334 6.4h6.4c64 0 117.333333 51.2 117.333333 117.333333s-51.2 117.333333-117.333333 117.333333h-4.266667c-6.4 0-12.8 4.266667-17.066667 10.666667-2.133333 6.4-2.133333 14.933333 4.266667 19.2l2.133333 2.133333c44.8 44.8 44.8 119.466667 0 164.266667-44.8 44.8-119.466667 44.8-164.266666 0l-2.133334-2.133333c-4.266667-4.266667-12.8-6.4-19.2-4.266667-6.4 2.133333-10.666667 8.533333-10.666666 17.066667v6.4c0 66.133333-53.333333 117.333333-117.333334 117.333333z m-96-215.466667c38.4 14.933333 66.133333 51.2 66.133334 93.866667v4.266667c0 17.066667 14.933333 32 32 32s32-14.933333 32-32v-6.4c0-40.533333 25.6-78.933333 61.866666-93.866667 38.4-17.066667 83.2-8.533333 113.066667 21.333333l2.133333 2.133334c12.8 12.8 32 12.8 44.8 0 6.4-6.4 8.533333-12.8 8.533334-21.333334s-4.266667-17.066667-8.533334-21.333333l-2.133333-2.133333c-29.866667-29.866667-38.4-74.666667-21.333333-115.2 17.066667-38.4 53.333333-61.866667 93.866666-61.866667h4.266667c17.066667 0 32-14.933333 32-32s-14.933333-32-32-32h-6.4c-40.533333 0-78.933333-25.6-93.866667-61.866667-2.133333-4.266667-2.133333-6.4-2.133333-10.666666-12.8-36.266667-4.266667-76.8 23.466667-106.666667l2.133333-2.133333c6.4-6.4 8.533333-12.8 8.533333-21.333334s-4.266667-17.066667-8.533333-21.333333c-6.4-6.4-12.8-8.533333-21.333333-8.533333s-17.066667 4.266667-21.333334 8.533333l-2.133333 2.133333c-29.866667 29.866667-74.666667 38.4-115.2 21.333334-38.4-17.066667-61.866667-53.333333-61.866667-93.866667v-4.266667C544 164.266667 529.066667 149.333333 512 149.333333s-32 14.933333-32 32v6.4c0 40.533333-25.6 78.933333-61.866667 93.866667-4.266667 2.133333-6.4 2.133333-10.666666 2.133333-36.266667 12.8-76.8 4.266667-106.666667-23.466666l-2.133333-2.133334c-12.8-12.8-32-12.8-44.8 0-6.4 6.4-8.533333 12.8-8.533334 21.333334s4.266667 17.066667 8.533334 21.333333l2.133333 2.133333c29.866667 29.866667 38.4 74.666667 21.333333 113.066667-14.933333 38.4-51.2 66.133333-93.866666 66.133333h-4.266667c-17.066667 0-32 14.933333-32 32s14.933333 32 32 32h6.4c40.533333 0 78.933333 25.6 93.866667 61.866667 17.066667 38.4 8.533333 83.2-21.333334 113.066667v4.266666c-6.4 6.4-8.533333 12.8-8.533333 21.333334s4.266667 17.066667 8.533333 21.333333c6.4 6.4 12.8 8.533333 21.333334 8.533333s17.066667-4.266667 21.333333-8.533333l2.133333-2.133333c32-29.866667 76.8-36.266667 115.2-21.333334z m366.933334-121.6z" p-id="2154"></path></svg>